<svg width="24" height="25" viewBox="0 0 24 25" fill="none" xmlns="http://www.w3.org/2000/svg">
<path d="M2 18.4261C2 17.8187 2.15479 17.2214 2.44975 16.6904L8.63566 5.5558C9.18399 4.56881 10.1381 3.87239 11.2452 3.65096V3.65096C11.7435 3.55131 12.2565 3.55131 12.7548 3.65096V3.65096C13.8619 3.87239 14.816 4.56881 15.3643 5.55581L21.5502 16.6904C21.8452 17.2214 22 17.8187 22 18.4261V18.4261C22 20.3999 20.3999 22 18.4261 22H5.57391C3.60009 22 2 20.3999 2 18.4261V18.4261Z" stroke="#F75252" stroke-width="1.5"/>
<path d="M12 9.5L12 13.5" stroke="#F75252" stroke-width="1.5" stroke-linecap="round" stroke-linejoin="round"/>
<path d="M12 16.5L12 17" stroke="#F75252" stroke-width="1.5" stroke-linecap="round" stroke-linejoin="round"/>
</svg>
